<svg width="23" height="23" viewBox="0 0 23 23" fill="none" xmlns="http://www.w3.org/2000/svg">
<path d="M21.0967 8.41915C21.039 8.24934 20.9329 8.10013 20.7914 7.98994C20.6499 7.87975 20.4793 7.81341 20.3005 7.7991L15.0714 7.38359L12.8086 2.37458C12.7365 2.21324 12.6193 2.07622 12.4711 1.98003C12.3228 1.88385 12.15 1.83262 11.9733 1.83252C11.7966 1.83242 11.6236 1.88347 11.4753 1.97949C11.327 2.07551 11.2096 2.21241 11.1374 2.37366L8.87455 7.38359L3.64539 7.7991C3.4697 7.81302 3.30174 7.87726 3.1616 7.98413C3.02147 8.09101 2.91509 8.236 2.85519 8.40175C2.7953 8.5675 2.78442 8.747 2.82387 8.91877C2.86332 9.09054 2.95142 9.24731 3.07763 9.37032L6.94193 13.1374L5.57526 19.0554C5.53376 19.2345 5.54706 19.422 5.61343 19.5935C5.6798 19.765 5.79618 19.9125 5.94747 20.0171C6.09876 20.1216 6.27797 20.1782 6.46184 20.1796C6.64571 20.181 6.82576 20.1271 6.97862 20.0249L11.973 16.6954L16.9673 20.0249C17.1235 20.1286 17.3078 20.182 17.4953 20.1779C17.6828 20.1738 17.8645 20.1124 18.0161 20.0019C18.1676 19.8914 18.2817 19.7372 18.3429 19.5599C18.4042 19.3827 18.4097 19.1909 18.3587 19.0105L16.6811 13.1402L20.8417 9.396C21.1141 9.15018 21.2141 8.76678 21.0967 8.41915Z" fill="#F3CD03"/>
</svg>
