<svg width="89" height="90" viewBox="0 0 89 90" fill="none" xmlns="http://www.w3.org/2000/svg">
<path d="M0 44.5C0 19.9233 19.9233 0 44.5 0C69.0767 0 89 19.9233 89 44.5V45.5C89 70.0767 69.0767 90 44.5 90C19.9233 90 0 70.0767 0 45.5V44.5Z" fill="#E77C40"/>
<path d="M30.2039 37.224H33.9479V54H30.2039L22.2119 43.488V54H18.4679V37.224H21.9719L30.2039 48.024V37.224ZM49.0091 52.128C47.5531 53.504 45.8411 54.192 43.8731 54.192C41.9211 54.192 40.3051 53.592 39.0251 52.392C37.7451 51.176 37.1051 49.552 37.1051 47.52C37.1051 45.488 37.7531 43.872 39.0491 42.672C40.3611 41.472 41.9051 40.872 43.6811 40.872C45.4571 40.872 46.9611 41.408 48.1931 42.48C49.4411 43.552 50.0651 45.024 50.0651 46.896V48.816H40.6571C40.7691 49.52 41.1371 50.096 41.7611 50.544C42.3851 50.992 43.0891 51.216 43.8731 51.216C45.1371 51.216 46.1771 50.792 46.9931 49.944L49.0091 52.128ZM46.4171 46.248C46.3371 45.48 46.0491 44.888 45.5531 44.472C45.0571 44.056 44.4491 43.848 43.7291 43.848C43.0251 43.848 42.3771 44.064 41.7851 44.496C41.1931 44.928 40.8491 45.512 40.7531 46.248H46.4171ZM59.3638 54H55.6438L51.2518 41.088H54.9718L57.4918 48.888L60.0118 41.088H63.4918L66.0118 48.888L68.5318 41.088H72.2758L67.8838 54H64.1398L61.7638 46.968L59.3638 54Z" fill="white"/>
</svg>
